<?xml version="1.0" encoding="UTF-8"?>
<svg id="Calque_2" data-name="Calque 2" xmlns="http://www.w3.org/2000/svg" viewBox="0 0 356.17 407.74">
  <defs>
    <style>
      .cls-1 {
        fill: #3e3a78;
      }

      .cls-2 {
        fill: #f7aa16;
      }

      .cls-3 {
        fill: #1a1731;
      }

      .cls-4 {
        fill: #4f4b9a;
      }

      .cls-5 {
        fill: #f8aa17;
        stroke: #1b1831;
      }

      .cls-5, .cls-6, .cls-7, .cls-8 {
        stroke-miterlimit: 10;
      }

      .cls-9 {
        fill: #2f2e62;
        fill-rule: evenodd;
      }

      .cls-10 {
        fill: #fff;
      }

      .cls-11 {
        fill: #eb5a61;
      }

      .cls-6 {
        fill: #8e89c1;
        stroke: #4f4b9a;
        stroke-width: 2px;
      }

      .cls-12 {
        fill: #3e2632;
      }

      .cls-7 {
        fill: #f8aa19;
        stroke: #1a1731;
      }

      .cls-13 {
        fill: #fde7df;
      }

      .cls-14 {
        fill: #1c1931;
      }

      .cls-15 {
        fill: #f29219;
      }

      .cls-16 {
        fill: #4f4a99;
      }

      .cls-8 {
        fill: #eb5b61;
        stroke: #1c1931;
        stroke-width: .5px;
      }
    </style>
  </defs>
  <g id="arriere_gameboy" data-name="arriere gameboy">
    <g>
      <path class="cls-4" d="M345.54,332.53h-.03c-2.17,1.34-4.61,2.35-7.29,3l-27.88,6.69-3.25.77-131.91,31.63-3.01.71-39.28,9.42c-12.54,3.01-25.42-3.63-29-14.94L9.93,72.66c-2.83-8.95,3-18.26,12.93-20.63L227.4,3.13c1.38-.33,2.77-.55,4.16-.63h.03c11.08-.85,21.59,5.38,24.96,15.32l98.55,290.16c3.22,9.45-.99,19.34-9.55,24.55Z"/>
      <path class="cls-4" d="M344.01,336.25h-.03c-2.17,1.34-4.61,2.35-7.29,3l-27.88,6.69-3.25.77-131.91,31.63-3.01.71-39.28,9.42c-12.54,3.01-25.42-3.63-29-14.94L8.39,76.38c-2.83-8.95,3-18.26,12.93-20.63L225.86,6.84c1.38-.33,2.77-.55,4.16-.63h.03c11.08-.85,21.59,5.38,24.96,15.32l98.55,290.16c3.22,9.45-.99,19.34-9.55,24.55Z"/>
      <path class="cls-4" d="M342.47,339.96h-.03c-2.17,1.34-4.61,2.35-7.29,3l-27.88,6.69-3.25.77-131.91,31.63-3.01.71-39.28,9.42c-12.54,3.01-25.42-3.63-29-14.94L6.86,80.09c-2.83-8.95,3-18.26,12.93-20.63L224.32,10.55c1.38-.33,2.77-.55,4.16-.63h.03c11.08-.85,21.59,5.38,24.96,15.32l98.55,290.16c3.22,9.45-.99,19.34-9.55,24.55Z"/>
      <path class="cls-4" d="M340.93,343.67h-.03c-2.17,1.34-4.61,2.35-7.29,3l-27.88,6.69-3.25.77-131.91,31.63-3.01.71-39.28,9.42c-12.54,3.01-25.42-3.63-29-14.94L5.32,83.8c-2.83-8.95,3-18.26,12.93-20.63L222.79,14.26c1.38-.33,2.77-.55,4.16-.63h.03c11.08-.85,21.59,5.38,24.96,15.32l98.55,290.16c3.22,9.45-.99,19.34-9.55,24.55Z"/>
      <path class="cls-4" d="M339.4,347.38h-.03c-2.17,1.34-4.61,2.35-7.29,3l-27.88,6.69-3.25.77-131.91,31.63-3.01.71-39.28,9.42c-12.54,3.01-25.42-3.63-29-14.94L3.79,87.51c-2.83-8.95,3-18.26,12.93-20.63L221.25,17.98c1.38-.33,2.77-.55,4.16-.63h.03c11.08-.85,21.59,5.38,24.96,15.32l98.55,290.16c3.22,9.45-.99,19.34-9.55,24.55Z"/>
      <path class="cls-4" d="M337.86,351.09h-.03c-2.17,1.34-4.61,2.35-7.29,3l-27.88,6.69-3.25.77-131.91,31.63-3.01.71-39.28,9.42c-12.54,3.01-25.42-3.63-29-14.94L2.25,91.22c-2.83-8.95,3-18.26,12.93-20.63L219.72,21.69c1.38-.33,2.77-.55,4.16-.63h.03c11.08-.85,21.59,5.38,24.96,15.32l98.55,290.16c3.22,9.45-.99,19.34-9.55,24.55Z"/>
      <path class="cls-4" d="M336.33,354.8h-.03c-2.17,1.34-4.61,2.35-7.29,3l-27.88,6.69-3.25.77-131.91,31.63-3.01.71-39.28,9.42c-12.54,3.01-25.42-3.63-29-14.94L.71,94.93c-2.83-8.95,3-18.26,12.93-20.63L218.18,25.4c1.38-.33,2.77-.55,4.16-.63h.03c11.08-.85,21.59,5.38,24.96,15.32l98.55,290.16c3.22,9.45-.99,19.34-9.55,24.55Z"/>
    </g>
  </g>
  <g id="fond_gameboy" data-name="fond gameboy">
    <path class="cls-6" d="M341.68,328.99h-.03c-2.13,1.33-4.52,2.33-7.14,2.98l-27.33,6.65-3.19.76-129.33,31.42-2.95.71-38.51,9.36c-12.29,2.99-24.93-3.61-28.43-14.84L12.63,70.79c-2.77-8.89,2.94-18.14,12.67-20.5L225.84,1.7c1.36-.33,2.72-.54,4.07-.62h.03c10.86-.84,21.17,5.35,24.47,15.22l96.62,288.3c3.16,9.39-.98,19.21-9.36,24.4Z"/>
  </g>
  <g id="boutons_logo" data-name="boutons logo">
    <circle class="cls-3" cx="255.93" cy="195.63" r="26.72"/>
    <circle class="cls-5" cx="258.96" cy="190.05" r="26.72"/>
    <circle class="cls-3" cx="123.89" cy="230.41" r="26.72"/>
    <circle class="cls-5" cx="126.91" cy="224.83" r="26.72"/>
  </g>
  <g id="fond_radar" data-name="fond radar">
    <polygon class="cls-9" points="34.81 77.21 236.64 23.98 276.34 147.03 72.67 200.43 34.81 77.21"/>
    <polygon class="cls-14" points="79.1 198.74 42.64 81.18 238.15 28.65 236.64 23.98 34.81 77.21 72.67 200.43 79.1 198.74"/>
  </g>
  <g id="graph_boutons_rouge" data-name="graph/boutons rouge">
    <path class="cls-12" d="M85.24,164.63c-7.31,0-13.28-5.72-13.61-13.02-.16-3.64,1.1-7.12,3.56-9.8s5.81-4.25,9.45-4.41c.2,0,.41-.01.61-.01,7.31,0,13.28,5.72,13.61,13.02.33,7.51-5.5,13.88-13.01,14.22-.2,0-.41.01-.61.01Z"/>
    <circle class="cls-11" cx="85.25" cy="151.01" r="8.81"/>
  </g>
  <g id="IP">
    <path class="cls-14" d="M251.22,98.73l4.56,15.97-7.05,1.9-3.32-11.61-2.35.63-1.24-4.36,9.41-2.53Z"/>
    <g>
      <path class="cls-14" d="M111.12,137.43l4.56,15.97-7.05,1.9-3.32-11.61-2.35.63-1.24-4.36,9.41-2.53Z"/>
      <path class="cls-14" d="M129.93,132.37l4.56,15.97-16.46,4.42-1.24-4.35,9.41-2.53-.41-1.45-9.41,2.53-2.9-10.16,16.46-4.42ZM124.12,138.62l-2.35.63.41,1.45,2.35-.63-.41-1.45Z"/>
      <path class="cls-14" d="M148.74,127.32l2.9,10.16-9.41,2.53.41,1.45,9.41-2.53,1.24,4.35-16.46,4.42-2.9-10.16,9.41-2.53-.41-1.45-9.41,2.53-1.24-4.36,16.46-4.42Z"/>
      <path class="cls-14" d="M161.46,136.4l1.24,4.35-7.05,1.9-1.24-4.35,7.05-1.9Z"/>
      <path class="cls-14" d="M169.9,121.63l4.56,15.97-7.05,1.9-3.32-11.61-2.35.63-1.24-4.36,9.41-2.53Z"/>
      <path class="cls-14" d="M188.71,116.58l1.24,4.36-9.41,2.53.41,1.45,9.41-2.53,2.9,10.16-16.46,4.42-4.56-15.97,16.46-4.42ZM184.56,128.63l-2.35.63.41,1.45,2.35-.63-.41-1.45Z"/>
      <path class="cls-14" d="M207.52,111.52l4.56,15.97-16.46,4.42-4.56-15.97,16.46-4.42ZM201.71,117.77l-2.35.63.41,1.45,2.35-.63-.41-1.45ZM203.37,123.58l-2.35.63.41,1.45,2.35-.63-.41-1.45Z"/>
      <path class="cls-14" d="M220.24,120.61l1.24,4.35-7.05,1.9-1.24-4.35,7.05-1.9Z"/>
      <path class="cls-14" d="M228.68,105.83l4.56,15.97-7.05,1.9-3.32-11.61-2.35.63-1.24-4.36,9.41-2.53Z"/>
      <path class="cls-14" d="M241.4,114.92l1.24,4.35-7.05,1.9-1.24-4.35,7.05-1.9Z"/>
    </g>
    <polygon class="cls-3" points="119.81 285.53 302.24 241.83 315.66 291.03 135.9 335.31 119.81 285.53"/>
    <g>
      <path class="cls-3" d="M124.83,350.08l-15.64-60.96,16.62-4.27,15.64,60.96-16.62,4.27Z"/>
      <path class="cls-3" d="M170.15,273.48l12.8,49.88-22.17,5.69,2.84,11.08-16.62,4.27-15.64-60.96,38.79-9.95ZM157.79,294.37l-5.54,1.42,4.27,16.62,5.54-1.42-4.27-16.62Z"/>
      <path class="cls-3" d="M191.33,333.02l-15.64-60.96,33.25-8.53,1.42,5.54,5.54-1.42,12.8,49.87-5.54,1.42,1.42,5.54-33.25,8.53ZM203.69,312.13l5.54-1.42-7.11-27.71-5.54,1.42,7.11,27.71Z"/>
      <path class="cls-3" d="M235.66,321.64l-15.64-60.96,38.79-9.95,4.27,16.62-22.17,5.69,1.42,5.54,22.17-5.69,4.27,16.62-22.17,5.69,1.42,5.54,22.17-5.69,4.27,16.62-38.79,9.95Z"/>
      <path class="cls-3" d="M303.15,239.36l7.11,27.71-5.54,1.42,1.42,5.54,5.54-1.42,7.11,27.71-16.62,4.27-4.27-16.62-5.54,1.42,4.27,16.62-16.62,4.27-7.11-27.71,5.54-1.42-1.42-5.54-5.54,1.42-7.11-27.71,16.62-4.27,4.27,16.62,5.54-1.42-4.27-16.62,16.62-4.27Z"/>
    </g>
    <g>
      <path class="cls-8" d="M111.12,135.4l4.56,15.97-7.05,1.9-3.32-11.61-2.35.63-1.24-4.36,9.41-2.53Z"/>
      <path class="cls-8" d="M129.93,130.34l4.56,15.97-16.46,4.42-1.24-4.35,9.41-2.53-.41-1.45-9.41,2.53-2.9-10.16,16.46-4.42ZM124.12,136.6l-2.35.63.41,1.45,2.35-.63-.41-1.45Z"/>
      <path class="cls-8" d="M148.74,125.29l2.9,10.16-9.41,2.53.41,1.45,9.41-2.53,1.24,4.35-16.46,4.42-2.9-10.16,9.41-2.53-.41-1.45-9.41,2.53-1.24-4.36,16.46-4.42Z"/>
      <path class="cls-8" d="M161.46,134.38l1.24,4.35-7.05,1.9-1.24-4.35,7.05-1.9Z"/>
      <path class="cls-8" d="M169.9,119.6l4.56,15.97-7.05,1.9-3.32-11.61-2.35.63-1.24-4.36,9.41-2.53Z"/>
      <path class="cls-8" d="M188.71,114.55l1.24,4.36-9.41,2.53.41,1.45,9.41-2.53,2.9,10.16-16.46,4.42-4.56-15.97,16.46-4.42ZM184.56,126.6l-2.35.63.41,1.45,2.35-.63-.41-1.45Z"/>
      <path class="cls-8" d="M207.52,109.49l4.56,15.97-16.46,4.42-4.56-15.97,16.46-4.42ZM201.71,115.74l-2.35.63.41,1.45,2.35-.63-.41-1.45ZM203.37,121.55l-2.35.63.41,1.45,2.35-.63-.41-1.45Z"/>
      <path class="cls-8" d="M220.24,118.58l1.24,4.35-7.05,1.9-1.24-4.35,7.05-1.9Z"/>
      <path class="cls-8" d="M228.68,103.8l4.56,15.97-7.05,1.9-3.32-11.61-2.35.63-1.24-4.36,9.41-2.53Z"/>
      <path class="cls-8" d="M249.79,98.15l4.56,15.97-7.05,1.9-3.32-11.61-2.35.63-1.24-4.36,9.41-2.53Z"/>
      <path class="cls-8" d="M241.4,112.89l1.24,4.35-7.05,1.9-1.24-4.35,7.05-1.9Z"/>
    </g>
    <g>
      <path class="cls-7" d="M129.47,343.62l-15.64-60.96,16.62-4.27,15.64,60.96-16.62,4.27Z"/>
      <path class="cls-7" d="M174.79,267.02l12.8,49.88-22.17,5.69,2.84,11.08-16.62,4.27-15.64-60.96,38.79-9.95ZM162.43,287.91l-5.54,1.42,4.27,16.62,5.54-1.42-4.27-16.62Z"/>
      <path class="cls-7" d="M195.97,326.55l-15.64-60.96,33.25-8.53,1.42,5.54,5.54-1.42,12.8,49.87-5.54,1.42,1.42,5.54-33.25,8.53ZM208.33,305.67l5.54-1.42-7.11-27.71-5.54,1.42,7.11,27.71Z"/>
      <path class="cls-7" d="M240.31,315.18l-15.64-60.96,38.79-9.95,4.27,16.62-22.17,5.69,1.42,5.54,22.17-5.69,4.27,16.62-22.17,5.69,1.42,5.54,22.17-5.69,4.27,16.62-38.79,9.95Z"/>
      <path class="cls-7" d="M307.8,232.89l7.11,27.71-5.54,1.42,1.42,5.54,5.54-1.42,7.11,27.71-16.62,4.27-4.27-16.62-5.54,1.42,4.27,16.62-16.62,4.27-7.11-27.71,5.54-1.42-1.42-5.54-5.54,1.42-7.11-27.71,16.62-4.27,4.27,16.62,5.54-1.42-4.27-16.62,16.62-4.27Z"/>
    </g>
    <g>
      <path class="cls-15" d="M90.5,117.18c-.25-1.7-.65-4.45-1.03-7.26-.11,5.02-1.69,8.97-4.52,9.71-.9.24-1.81.15-2.77-.21.04.3.05.61.1.91.08.53.16,1.06.25,1.58,2.51-.88,5.3-1.79,8.3-2.69-.11-.66-.22-1.34-.32-2.03Z"/>
      <g>
        <g>
          <path class="cls-13" d="M134.81,96.09c-.33.63-.8,1.19-1.41,1.68-.62.49-1.38.85-2.3,1.09-1.23.32-2.34.32-3.32-.03-.98-.34-1.78-.88-2.42-1.6-.63-.73-1.08-1.58-1.34-2.57-.26-.98-.28-1.94-.09-2.89.2-.94.63-1.81,1.32-2.58.68-.78,1.64-1.33,2.88-1.66.93-.24,1.79-.29,2.57-.16.79.14,1.48.4,2.08.81l1.42-1.98c-.86-.57-1.85-.94-2.96-1.13-1.1-.18-2.32-.1-3.64.25-1.34.35-2.45.88-3.33,1.59-.88.71-1.55,1.53-2.02,2.44-.47.91-.75,1.88-.83,2.91-.09,1.03,0,2.05.25,3.03.26.99.68,1.9,1.26,2.75.58.85,1.3,1.56,2.15,2.12.86.56,1.84.94,2.96,1.12,1.12.19,2.34.11,3.68-.24,1.32-.35,2.43-.87,3.3-1.57.88-.7,1.56-1.5,2.03-2.4l-.04.03-2.21-1.03Z"/>
          <path class="cls-13" d="M140.68,86.24c-.37.14-.72.32-1.05.52-.33.2-.64.44-.91.7-.28.27-.5.55-.66.86l-.29-1.12-2.21.58,2.91,11.09,2.21-.58-1.4-5.35c-.16-.61-.24-1.18-.25-1.71,0-.53.1-1.01.31-1.44.22-.43.56-.79,1.04-1.08.48-.3,1.14-.52,1.97-.66l-.56-2.14c-.37.07-.74.17-1.1.31Z"/>
          <path class="cls-13" d="M153.34,86.13c-.66-.75-1.5-1.29-2.51-1.63-1.02-.34-2.18-.34-3.49,0-1.31.34-2.33.91-3.04,1.71-.72.79-1.18,1.68-1.39,2.65-.21.97-.18,1.95.08,2.94.27.98.73,1.85,1.38,2.6.66.75,1.49,1.29,2.51,1.63,1.03.34,2.18.34,3.48,0,1.3-.34,2.31-.91,3.03-1.71.72-.79,1.19-1.68,1.39-2.65.21-.97.18-1.95-.07-2.94-.25-.99-.71-1.86-1.37-2.61ZM152.61,91.39c-.11.67-.38,1.29-.81,1.84-.43.55-1.06.93-1.87,1.14-.82.21-1.55.19-2.19-.08-.64-.27-1.18-.67-1.61-1.2-.42-.54-.73-1.16-.92-1.87-.19-.71-.22-1.41-.12-2.09.11-.67.38-1.29.81-1.84.43-.55,1.06-.93,1.87-1.14s1.55-.19,2.19.08c.64.27,1.18.67,1.61,1.2.42.54.73,1.16.92,1.88s.22,1.41.12,2.08Z"/>
          <path class="cls-13" d="M167.12,79.55l-.12,8.97-4.55-7.75-2.54.67-.12,8.97-4.51-7.76-2.6.68,6.53,10.14,2.6-.68.06-9.12,4.53,7.91,2.6-.68.72-12.04-2.6.68Z"/>
          <path class="cls-13" d="M177.85,72.25l1.53,5.76c-.62-.47-1.3-.78-2.03-.92-.73-.14-1.46-.13-2.17.02-.72.15-1.39.44-2.02.87-.63.42-1.15.96-1.57,1.59-.42.64-.71,1.37-.85,2.2-.15.84-.1,1.74.16,2.72s.65,1.79,1.19,2.44c.53.65,1.14,1.15,1.81,1.5.67.34,1.39.55,2.15.61.76.07,1.48,0,2.18-.23.7-.22,1.33-.57,1.9-1.04.57-.47,1.01-1.07,1.32-1.79l.41,1.57,2.23-.58-4.01-15.29-2.23.58ZM180.6,83.55c-.02.53-.14,1.04-.34,1.5-.2.47-.5.88-.9,1.23-.39.35-.9.61-1.5.77-.61.16-1.17.18-1.69.07-.52-.11-.98-.32-1.39-.63-.41-.3-.75-.69-1.03-1.14-.28-.46-.49-.94-.62-1.45-.13-.51-.19-1.03-.17-1.57.02-.53.13-1.03.34-1.5.2-.47.5-.88.9-1.23s.9-.61,1.51-.77,1.17-.18,1.69-.07c.52.11.98.32,1.39.63.41.3.75.69,1.04,1.14.28.46.49.94.62,1.45.13.51.18,1.03.17,1.57Z"/>
          <path class="cls-2" d="M196.48,79.4c-.17-.48-.4-.91-.7-1.28-.48-.59-1.1-1-1.85-1.23-.75-.23-1.56-.38-2.42-.46-.86-.08-1.72-.14-2.6-.16-.87-.03-1.67-.14-2.38-.32-.65-.17-1.09-.45-1.31-.81-.22-.37-.27-.77-.13-1.21.14-.43.43-.85.88-1.25.46-.41,1.03-.73,1.72-.95.7-.23,1.49-.34,2.37-.31.88.02,1.84.25,2.85.69l.18-.37.86-1.72c-.96-.35-2-.58-3.09-.67-1.1-.09-2.24,0-3.42.3l-.03.03c-.7.18-1.37.46-2,.83-.64.37-1.17.81-1.62,1.33-.44.52-.77,1.1-.96,1.75-.2.65-.21,1.34-.03,2.08.15.63.43,1.13.85,1.5.41.36.91.65,1.48.85.57.2,1.2.34,1.88.41.68.07,1.36.12,2.05.15.68.03,1.35.06,1.99.11.64.04,1.2.13,1.69.26.71.21,1.16.51,1.37.91.21.39.23.81.06,1.25-.17.44-.48.86-.93,1.25-.45.39-.97.66-1.55.81-1.11.31-2.14.41-3.11.31-.98-.1-2.02-.42-3.13-.99l-.21.43-.84,1.69c.66.32,1.29.57,1.9.75.61.18,1.21.29,1.8.35.59.05,1.19.05,1.81,0,.61-.06,1.25-.18,1.93-.35.69-.2,1.4-.49,2.12-.88.73-.4,1.34-.88,1.84-1.46.25-.3.45-.62.61-.96.16-.35.25-.71.28-1.09.04-.56-.02-1.07-.18-1.55Z"/>
          <path class="cls-2" d="M208.38,73.75c-.26-.62-.6-1.19-1.05-1.71-.44-.52-.96-.95-1.57-1.28-.61-.33-1.29-.54-2.04-.63-.76-.09-1.58-.02-2.47.21-.89.23-1.64.58-2.25,1.03-.62.45-1.1.97-1.47,1.55-.37.59-.61,1.21-.75,1.88-.13.67-.15,1.34-.07,2,.07.57.22,1.13.43,1.66.25.62.6,1.19,1.04,1.71.45.52.97.95,1.58,1.28.61.33,1.29.54,2.04.63.75.09,1.58.02,2.47-.22,1.06-.28,1.93-.71,2.6-1.3.67-.59,1.16-1.26,1.48-2.01l-1.95-.82c-.16.57-.45,1.08-.87,1.52-.42.44-.98.75-1.68.94h-.02c-.52.14-1,.17-1.46.11-.46-.07-.88-.22-1.26-.44-.38-.23-.71-.51-.99-.86-.29-.34-.52-.73-.71-1.14l9.39-2.46c-.07-.57-.22-1.12-.43-1.66ZM198.99,76.21c-.04-.46-.02-.9.06-1.35.08-.44.22-.85.44-1.24.22-.38.51-.72.88-1,.37-.28.81-.5,1.34-.64s1.01-.17,1.48-.1c.46.07.88.21,1.26.44.37.23.71.52.99.86.29.35.52.73.71,1.15l-7.16,1.88Z"/>
          <path class="cls-2" d="M218.09,75.95c-.42.46-1,.79-1.73.98-.82.21-1.54.19-2.19-.08-.64-.27-1.18-.67-1.61-1.2-.42-.54-.73-1.16-.92-1.87-.19-.71-.22-1.41-.12-2.08.11-.68.38-1.29.81-1.84.44-.55,1.06-.94,1.87-1.15.73-.19,1.39-.19,1.99,0,.6.19,1.11.51,1.53.94l1.29-1.69c-.65-.51-1.41-.86-2.29-1.06-.87-.19-1.86-.14-2.95.14-1.31.34-2.32.91-3.04,1.71-.72.79-1.19,1.68-1.4,2.65-.21.97-.18,1.95.09,2.94.27.99.72,1.86,1.38,2.6.65.74,1.49,1.28,2.51,1.63,1.03.34,2.18.34,3.48,0,1.09-.29,1.98-.73,2.64-1.32.67-.6,1.16-1.28,1.47-2.04l-1.95-.84c-.16.59-.45,1.11-.87,1.57Z"/>
        </g>
        <path class="cls-16" d="M94.41,116.23c4.63-1.21,6.57-9.29,5.23-18.22.98-.27,1.6-1.2,1.52-2.18h0c0-.11-.02-.22-.05-.33.02,0,.04,0,.06,0,.71-.15,1.17-.85,1.03-1.56-.1-.47-.44-.83-.86-.98.63-.5.94-1.34.72-2.17-.27-1.02-1.23-1.66-2.25-1.55.11-.26.14-.56.06-.86-.18-.7-.89-1.12-1.59-.95.29-.26.52-.58.63-.94.28-.87-.53-4.26-2.79-5.98-.93-.71-1.47,0-1.36.63.36,1.9.71,3.3.64,5.02-.26-.58-.91-.91-1.54-.74-.41.11-.72.39-.88.75-.4-.94-1.44-1.47-2.46-1.21-1.02.27-1.67,1.24-1.55,2.26-.31-.24-.73-.34-1.14-.23-.64.17-1.04.77-.98,1.4-.9-1.47-1.28-2.86-1.91-4.69-.2-.6-1.03-.96-1.49.12-1.13,2.61-.17,5.96.51,6.58.27.25.63.43,1.01.51-.69.2-1.1.91-.92,1.61.08.3.25.54.48.71-.93.41-1.46,1.44-1.19,2.46.22.83.9,1.41,1.69,1.54-.3.34-.41.81-.27,1.27.22.7.97,1.08,1.66.86.02,0,.04-.01.06-.02.03.1.07.2.11.3h0c.42.91,1.44,1.42,2.44,1.16,0,0,0,0,0,0,.08,2.58,1.04,9.76,2.01,16.32-.06-.37-.07-.76-.12-1.13,1.19.44,2.33.56,3.45.26Z"/>
        <path class="cls-1" d="M98.97,116.93c2.59-.68,5.11-1.29,7.52-1.85-.22-.57-.44-1.15-.66-1.74-.88-2.31-1.8-4.77-2.68-7.07-1.45-3.68-2.76-6.85-3.5-8.27,1.34,8.94-.6,17.01-5.23,18.22-1.13.3-2.26.18-3.45-.26.06.37.07.76.12,1.13.1.66.2,1.31.31,1.95,2.41-.72,4.95-1.43,7.58-2.12Z"/>
        <g>
          <g>
            <path class="cls-16" d="M86.15,99.99c-.41.02-.8-.09-1.13-.3-.25.13-.49.27-.72.44-.48.34-1.05.49-1.64.43-.72-.07-1.42,0-2.11.16-.94.23-1.85.56-2.69,1.08.08.31.15.6.24.88.02.07.09.12.15.18.13.14.3.25.4.41.24.35.44.73.67,1.08.26.39.66.59,1.12.53.54-.07,1.09-.16,1.61-.31.33-.1.61-.25.82-.46,0-.67.02-1.33.16-2.01.2-.93.85-1.13,1.51-.4.43.47.76.99,1.05,1.53.19.09.39.13.62.13.74-.01,1.44-.19,2.1-.53.11-.06.21-.12.3-.19-.04-.45-.07-.85-.09-1.21-.98,0-1.89-.55-2.36-1.44Z"/>
            <path class="cls-10" d="M86.54,105.05c-.33-.6-.62-1.22-.95-1.82-.3-.54-.63-1.06-1.06-1.53-.67-.74-1.32-.53-1.51.4-.15.67-.17,1.34-.16,2,0,.63.05,1.26.05,1.9,0,.6.06,1.2.16,1.78.16.91.94,1.52,1.67,1.33l1.71-.45c.73-.19,1.11-1.11.8-1.98-.19-.56-.43-1.1-.72-1.63ZM84.88,105.05c.11.39.2.78.27,1.17.09.47.18.94.23,1.4.03.32-.05.36-.19.05-.19-.41-.33-.88-.49-1.33-.13-.38-.24-.76-.34-1.15-.54,0-1.07-.41-1.37-1.04.42.12.89.13,1.38,0s.9-.37,1.2-.68c.06.7-.21,1.31-.68,1.58Z"/>
            <path class="cls-15" d="M82.99,104.15c.29.63.83,1.04,1.37,1.04.1.39.21.78.34,1.15.16.46.3.92.49,1.33.14.31.22.27.19-.05-.04-.45-.14-.93-.23-1.4-.07-.39-.16-.78-.27-1.17.47-.27.74-.89.68-1.58-.3.31-.72.55-1.2.68s-.96.12-1.38,0Z"/>
            <path class="cls-16" d="M101.76,95.9c.03.99-.49,1.9-1.32,2.4.14.29.29.62.46.99.18.07.37.1.58.07.54-.07,1.09-.16,1.61-.31.33-.1.61-.25.82-.46,0-.67.02-1.33.16-2.01.2-.93.85-1.13,1.51-.4.43.47.76.99,1.05,1.53.19.09.39.13.62.13.74-.01,1.44-.19,2.1-.53.48-.24.74-.61.78-1.13.03-.39.04-.77.04-1.16,0-.22-.03-.43.18-.6.04-.03.04-.14.03-.21-.07-.29-.15-.59-.24-.94-.59.06-1.18.08-1.76.18-1.08.18-2.12.5-3.03,1.15-.48.34-1.05.49-1.64.43-.36-.03-.72-.04-1.08,0-.18.37-.48.68-.86.87Z"/>
            <path class="cls-10" d="M107.59,99.53c-.33-.6-.62-1.22-.95-1.82-.3-.54-.63-1.06-1.06-1.53-.67-.74-1.32-.53-1.51.4-.15.67-.17,1.34-.16,2,0,.63.05,1.26.05,1.9,0,.6.06,1.19.17,1.77.16.91.94,1.52,1.67,1.33l1.71-.45c.73-.19,1.11-1.11.8-1.98-.19-.56-.44-1.1-.73-1.63ZM105.94,99.53c.11.39.19.78.27,1.17.08.47.18.94.23,1.4.03.32-.05.36-.19.05-.19-.41-.33-.88-.49-1.33-.13-.37-.25-.76-.34-1.15-.54,0-1.08-.41-1.37-1.04.42.12.89.13,1.38,0s.9-.37,1.2-.68c.06.7-.21,1.31-.68,1.58Z"/>
            <path class="cls-15" d="M104.04,98.63c.29.63.83,1.04,1.37,1.04.1.39.21.78.34,1.15.16.46.3.92.49,1.33.14.31.22.27.19-.05-.04-.45-.14-.93-.23-1.4-.07-.39-.16-.78-.27-1.17.47-.27.74-.89.68-1.58-.3.31-.72.55-1.2.68-.48.13-.96.12-1.38,0Z"/>
            <path class="cls-15" d="M110.19,99.5c.6,1.14,1.65,3.68,2.81,6.63-1.07-2.79-2.08-5.3-2.81-6.63Z"/>
          </g>
          <g>
            <g id="IgKKMw">
              <path class="cls-2" d="M99.57,90.25c-.74.07-1.47.1-2.19.22-1.35.23-2.64.62-3.78,1.43-.6.43-1.31.61-2.05.54-.89-.09-1.76-.01-2.63.2-1.18.29-2.3.69-3.36,1.35.1.4.19.75.29,1.1.03.09.12.15.19.23.17.17.37.31.5.5.3.44.55.91.84,1.35.33.49.82.74,1.4.66.67-.08,1.35-.2,2-.39.41-.12.76-.31,1.02-.57.35-.34.56-.79.63-1.38.05-.46.15-.91.26-1.35.03-.15.16-.36.27-.39.14-.03.36.08.47.19.44.46.84.96,1.26,1.44.15.18.32.31.51.39t0,0c.23.11.49.16.77.16.93,0,1.79-.24,2.62-.65.6-.3.92-.76.97-1.42.03-.48.05-.97.05-1.45,0-.27-.03-.54.22-.74.05-.04.06-.18.03-.26-.09-.37-.19-.73-.3-1.17Z"/>
            </g>
            <path class="cls-10" d="M96.4,98.05c-.79-1.44-1.38-2.94-2.5-4.18-.83-.92-1.64-.66-1.89.49-.35,1.63-.14,3.22-.13,4.87,0,.75.08,1.49.21,2.21.2,1.13,1.17,1.89,2.08,1.65l2.13-.56c.91-.24,1.38-1.38,1-2.46-.24-.7-.54-1.37-.91-2.03Z"/>
            <path class="cls-16" d="M95.19,96.08c-.38.39-.89.69-1.49.85-.6.16-1.2.15-1.72,0,.36.78,1.03,1.3,1.71,1.3.12.49.26.97.42,1.43.2.57.38,1.15.61,1.66.17.38.27.34.23-.06-.05-.57-.18-1.15-.28-1.75-.09-.49-.2-.97-.33-1.46.59-.33.92-1.11.85-1.97Z"/>
          </g>
        </g>
        <path class="cls-2" d="M84.94,119.63c2.84-.74,4.42-4.7,4.52-9.71-.35-2.63-.69-5.32-.86-7.27-.09.07-.18.13-.3.19-.66.33-1.36.52-2.1.53-.23,0-.43-.04-.62-.13.33.6.62,1.21.95,1.82.29.53.53,1.07.73,1.63.3.87-.08,1.78-.8,1.97l-1.71.45c-.73.19-1.51-.42-1.67-1.32-.1-.58-.16-1.18-.17-1.78,0-.64-.05-1.27-.06-1.9-.21.21-.49.36-.82.46-.52.15-1.07.24-1.61.31-.47.06-.86-.14-1.12-.53-.24-.35-.44-.73-.67-1.08-.1-.15-.27-.27-.4-.41-.06-.06-.13-.11-.15-.18-.09-.28-.15-.57-.24-.88.85-.53,1.75-.85,2.69-1.08.7-.17,1.4-.23,2.11-.16.6.06,1.16-.09,1.64-.43.23-.17.47-.31.72-.44-.36-.23-.65-.59-.79-1.02-.12-.37-.12-.75-.02-1.11-.69-.34-1.22-.96-1.42-1.73-.11-.42-.11-.85-.03-1.25-.29-.09-.61-.1-.92-.02-.82.21-1.34,1-1.24,1.82-.25-.19-.58-.27-.91-.18-.51.13-.83.62-.79,1.13-.72-1.18-1.03-2.3-1.53-3.76-.16-.48-.82-.77-1.2.1-.9,2.09-.13,4.78.41,5.28.22.2.51.34.81.41-.55.16-.88.73-.73,1.29.06.24.2.43.38.57-.75.33-1.17,1.15-.96,1.97.17.66.72,1.13,1.36,1.23-.24.27-.33.65-.21,1.02.18.56.77.87,1.33.69.02,0,.03-.01.05-.02.02.08.05.16.09.24h0c.33.73,1.15,1.14,1.96.93,0,0,0,0,0,0,.06,2.07.83,7.83,1.61,13.09-.04-.3-.05-.61-.1-.91.95.36,1.87.45,2.77.21Z"/>
        <path class="cls-2" d="M110.19,99.5c.79-.22,1.29-.96,1.22-1.75h0c0-.09-.02-.17-.04-.26.02,0,.03,0,.05,0,.57-.12.94-.68.82-1.25-.08-.38-.35-.67-.69-.78.5-.4.75-1.08.58-1.74-.21-.81-.99-1.33-1.8-1.25.09-.21.11-.45.05-.69-.15-.56-.71-.9-1.27-.76.23-.2.42-.47.51-.75.23-.7-.42-3.42-2.23-4.8-.75-.57-1.18,0-1.09.5.29,1.52.57,2.65.51,4.03-.21-.47-.73-.73-1.24-.6-.33.09-.58.32-.7.6-.32-.76-1.16-1.18-1.97-.97-.34.09-.62.27-.83.52.26.3.46.67.57,1.08.2.77.05,1.57-.39,2.2.27.26.45.6.53.98.09.43.03.86-.16,1.23.36-.03.72-.03,1.08,0,.6.06,1.16-.09,1.64-.43.91-.65,1.95-.97,3.03-1.15.57-.1,1.16-.12,1.76-.18.09.35.17.64.24.94.02.07.01.18-.03.21-.21.16-.17.38-.18.6,0,.39-.01.78-.04,1.16-.04.53-.3.89-.78,1.13-.66.33-1.36.52-2.1.53-.23,0-.43-.04-.62-.13.33.6.62,1.21.95,1.82.29.53.53,1.07.73,1.63.3.87-.08,1.78-.8,1.97l-1.71.45c-.73.19-1.51-.42-1.67-1.32-.1-.58-.16-1.18-.17-1.78,0-.64-.05-1.27-.06-1.9-.21.21-.49.36-.82.46-.52.15-1.07.24-1.61.31-.21.03-.4,0-.58-.07,1.12,2.5,2.91,7,5.51,13.84.09.24.18.48.28.73,3.21-1.56,4.5-7.66,3.5-14.36Z"/>
        <path class="cls-15" d="M115.15,111.8c-.7-1.85-1.44-3.82-2.15-5.67-1.16-2.95-2.21-5.49-2.81-6.63,1,6.7-.29,12.79-3.5,14.36.13.35.27.71.41,1.09,3.06-.69,5.95-1.27,8.58-1.74-.18-.46-.35-.93-.53-1.41Z"/>
        <path class="cls-16" d="M106.49,115.08s.03,0,.04-.01c-.22-.57-.44-1.15-.66-1.74-.9-2.36-1.84-4.8-2.72-7.06.88,2.3,1.8,4.76,2.68,7.07.22.59.44,1.17.66,1.74Z"/>
        <path class="cls-1" d="M99.64,98c.75,1.43,2.05,4.59,3.5,8.27-1.34-3.48-2.59-6.61-3.5-8.27Z"/>
      </g>
      <path class="cls-1" d="M91.08,117.09c.1.66.2,1.31.29,1.96,0,0,.01,0,.02,0-.11-.64-.21-1.29-.31-1.95Z"/>
    </g>
  </g>
</svg>